PathFileType	4	(X/Y/Z)	C:/Users/opensim2020/Desktop/walking_exp_matlab/subject06_walking14_straight_01.trc	
DataRate	CameraRate	NumFrames	NumMarkers	Units	OrigDataRate	OrigDataStartFrame	OrigNumFrames	
100.00	100.00	4	45	mm	100.00	911	203	
Frame#	Time	LFHD			RFHD			LBHD			RBHD			C7			T10			CLAV			STRN			RBAK			LSHO			LUPA			LELB			LFRM			LWRA			LWRB			LFIN			RSHO			RUPA			RELB			RFRM			RWRA			RWRB			RFIN			LASI			RASI			LPSI			RPSI			LTHI			LKNE			LTIB			LANK			LHEE			LTOE			RTHI			RKNE			RTIB			RANK			RHEE			RTOE			*39			*40			*41			*42			*43			*44			
		X1	Y1	Z1	X2	Y2	Z2	X3	Y3	Z3	X4	Y4	Z4	X5	Y5	Z5	X6	Y6	Z6	X7	Y7	Z7	X8	Y8	Z8	X9	Y9	Z9	X10	Y10	Z10	X11	Y11	Z11	X12	Y12	Z12	X13	Y13	Z13	X14	Y14	Z14	X15	Y15	Z15	X16	Y16	Z16	X17	Y17	Z17	X18	Y18	Z18	X19	Y19	Z19	X20	Y20	Z20	X21	Y21	Z21	X22	Y22	Z22	X23	Y23	Z23	X24	Y24	Z24	X25	Y25	Z25	X26	Y26	Z26	X27	Y27	Z27	X28	Y28	Z28	X29	Y29	Z29	X30	Y30	Z30	X31	Y31	Z31	X32	Y32	Z32	X33	Y33	Z33	X34	Y34	Z34	X35	Y35	Z35	X36	Y36	Z36	X37	Y37	Z37	X38	Y38	Z38	X39	Y39	Z39	X40	Y40	Z40	X41	Y41	Z41	X42	Y42	Z42	X43	Y43	Z43	X44	Y44	Z44	X45	Y45	Z45	

102	1.010	1380.38245	-277.06396	1663.32959	1511.97168	-271.69913	1651.50757	1385.94666	-413.08661	1616.07422	1515.20435	-406.04092	1609.67798	1442.56775	-420.20969	1456.47168	1451.75732	-462.81146	1128.46155	1439.08569	-311.81778	1375.36304	1435.32251	-277.43054	1198.90540	1528.00354	-493.63669	1288.67334	1278.86914	-374.28708	1408.78931	1212.17078	-418.47113	1210.33203	1205.25159	-448.29330	1101.90857	1177.70886	-456.55930	952.74341	1203.14575	-408.81039	827.71149	1180.13306	-476.86047	835.16583	1169.49927	-451.61020	747.86670	1599.90027	-350.21365	1411.72290	1698.77783	-366.05261	1217.16858	1719.52905	-336.17407	1100.79028	1737.83032	-278.66010	997.39227	1702.53955	-168.01761	896.25482	1744.25562	-215.96742	875.14972	1745.57947	-150.26338	822.47821	1347.96997	-286.34665	963.90137	1565.88440	-299.05688	966.71167	1365.85425	-446.42249	992.00922	1534.30981	-448.23972	998.73328	1282.68665	-295.82663	653.96082	1313.25232	-246.88132	499.81873	1318.54065	-260.97379	246.26106	1355.31323	-240.69551	74.41528	1406.87683	-272.34479	58.01834	1340.64478	-97.03522	51.81247	1602.79858	-395.62772	635.00653	1579.33740	-414.62408	510.15454	1561.70435	-526.72113	263.55878	1502.65942	-579.02716	87.08547	1455.66394	-621.08514	70.81929	1505.00208	-430.69702	36.68234	1444.31970	-372.38403	1706.83154															 
103	1.020	1379.87988	-266.75397	1661.78796	1511.47302	-261.37857	1649.93884	1385.43079	-402.88266	1614.82910	1514.72900	-395.86780	1608.41418	1442.15552	-410.42065	1455.12036	1451.23108	-452.61368	1126.79370	1438.64368	-301.84891	1374.01733	1434.94348	-267.40076	1197.54053	1527.52136	-483.66388	1287.28088	1278.37842	-364.53717	1407.35815	1211.74097	-410.12488	1209.34436	1205.01123	-440.97739	1101.20789	1177.46472	-450.56320	952.13635	1202.74658	-403.79257	826.68005	1179.94299	-471.81528	834.75806	1169.38062	-447.32382	747.22626	1599.38403	-340.38940	1410.45862	1698.40405	-355.94861	1216.00720	1719.36780	-325.61050	1099.88269	1737.72192	-266.54532	997.40778	1702.21973	-154.47699	898.17310	1743.95801	-201.98508	876.26453	1745.18958	-135.56166	824.73773	1347.96130	-275.98828	962.28394	1565.72717	-289.05865	965.43884	1365.32703	-436.15314	990.60864	1533.92859	-438.30988	997.68036	1281.95874	-287.41403	651.84448	1312.78735	-238.07744	497.98489	1318.74817	-240.33630	244.08002	1355.98450	-211.76390	73.58199	1407.75330	-242.66022	56.52431	1343.25366	-66.40932	54.35981	1602.87585	-388.26318	634.32196	1579.63477	-408.31207	509.54892	1561.83337	-523.77466	264.26535	1502.72437	-578.40100	88.38876	1455.67188	-620.41217	72.56644	1505.00452	-430.65115	36.68408	1443.81909	-361.98032	1705.51978															 
104	1.030	1379.29980	-256.78192	1660.09998	1510.91394	-251.11461	1648.35303	1384.91455	-392.70911	1613.50598	1514.14917	-385.61002	1607.06750	1441.59021	-400.39536	1453.55188	1450.76135	-442.52087	1125.30334	1438.03723	-291.85242	1372.50208	1434.57849	-257.26743	1196.13989	1527.00439	-473.55661	1285.67554	1277.86084	-354.74847	1405.84009	1211.27417	-401.51852	1208.28931	1204.79932	-433.27615	1100.28821	1177.30078	-443.73694	951.21960	1202.29419	-398.17868	825.59338	1179.63159	-466.18423	834.05322	1169.00928	-442.58267	746.43671	1598.82373	-330.59967	1409.13916	1697.92151	-345.84607	1214.75769	1718.94958	-315.32568	1098.85046	1737.45374	-254.87254	997.23608	1701.84314	-141.27052	899.81097	1743.34668	-188.53752	877.07947	1744.71680	-121.15685	826.54877	1347.93237	-265.40967	960.69287	1565.75928	-279.12018	964.12000	1364.77283	-425.60284	988.99622	1533.47742	-428.31750	996.43622	1281.16956	-278.85999	649.72522	1312.27271	-229.01564	496.13971	1319.06775	-220.72044	242.38145	1357.20251	-184.14972	73.28358	1408.93347	-214.57761	55.77982	1346.03345	-37.50945	58.03260	1602.99243	-380.45880	633.50525	1579.83899	-401.50354	508.75925	1562.02332	-520.64331	264.96887	1502.79724	-577.66852	89.86618	1455.77808	-619.91632	74.68745	1505.04114	-430.58295	36.60716	1443.25867	-351.65085	1704.10718															 
105	1.040	1378.61401	-246.17656	1658.58679	1510.27039	-240.78983	1646.74854	1384.23694	-382.41818	1612.11023	1513.50378	-375.35034	1605.63782	1440.87720	-390.03531	1451.91943	1450.13831	-432.21472	1123.64648	1437.46936	-281.78064	1370.98962	1434.22595	-247.04980	1194.70764	1526.41394	-463.51694	1284.05164	1277.28943	-344.87527	1404.26123	1210.63184	-392.84268	1207.13916	1204.18701	-425.12021	1099.34839	1176.69714	-437.17447	950.50769	1201.74573	-392.03928	824.38446	1179.21973	-460.27487	833.43561	1168.63391	-437.22745	745.49536	1598.20520	-320.68781	1407.77820	1697.39844	-335.69321	1213.44385	1718.62695	-304.68228	1097.72766	1736.87903	-243.44444	996.84741	1701.41211	-128.38774	901.18170	1742.81567	-175.32664	877.65204	1744.28113	-107.28901	828.14075	1347.94104	-254.76221	959.08752	1565.68738	-269.05350	962.73315	1364.16321	-414.93771	987.36670	1532.90869	-418.22223	995.10065	1280.06238	-269.74783	647.96582	1311.60352	-219.96748	494.30624	1319.59363	-202.26129	241.06270	1358.39209	-158.13245	73.51471	1410.03284	-187.94199	55.23892	1349.12756	-10.12193	62.34978	1603.17639	-372.18826	632.59467	1580.01892	-394.00580	507.85376	1562.22070	-516.96997	265.69489	1502.92639	-576.68097	91.40737	1455.91443	-619.14478	76.85181	1504.99316	-430.47046	36.58556	1442.61292	-341.18921	1702.64746															 
